<?xml version="1.0" encoding="UTF-8"?> <svg xmlns="http://www.w3.org/2000/svg" width="32" height="32" viewBox="0 0 32 32" fill="none"><path d="M25.3333 4H6.66667C5.19391 4 4 5.19391 4 6.66667V25.3333C4 26.8061 5.19391 28 6.66667 28H25.3333C26.8061 28 28 26.8061 28 25.3333V6.66667C28 5.19391 26.8061 4 25.3333 4Z" stroke="#F3C5EE" stroke-width="2" stroke-linecap="round" stroke-linejoin="round"></path><path d="M11.334 13.332C12.4386 13.332 13.334 12.4366 13.334 11.332C13.334 10.2275 12.4386 9.33203 11.334 9.33203C10.2294 9.33203 9.33398 10.2275 9.33398 11.332C9.33398 12.4366 10.2294 13.332 11.334 13.332Z" stroke="#F3C5EE" stroke-width="2" stroke-linecap="round" stroke-linejoin="round"></path><path d="M27.2007 19.332L21.334 13.332L5.33398 26.6654" stroke="#F3C5EE" stroke-width="2" stroke-linecap="round" stroke-linejoin="round"></path></svg> 