<?xml version="1.0" encoding="UTF-8"?> <svg xmlns="http://www.w3.org/2000/svg" width="34" height="34" viewBox="0 0 34 34" fill="none"><path d="M14.1667 30.4583C14.9491 30.4583 15.5833 29.8241 15.5833 29.0417C15.5833 28.2593 14.9491 27.625 14.1667 27.625C13.3843 27.625 12.75 28.2593 12.75 29.0417C12.75 29.8241 13.3843 30.4583 14.1667 30.4583Z" stroke="#F3C5EE" stroke-width="2" stroke-linecap="round" stroke-linejoin="round"></path><path d="M25.5007 30.4583C26.2831 30.4583 26.9173 29.8241 26.9173 29.0417C26.9173 28.2593 26.2831 27.625 25.5007 27.625C24.7182 27.625 24.084 28.2593 24.084 29.0417C24.084 29.8241 24.7182 30.4583 25.5007 30.4583Z" stroke="#F3C5EE" stroke-width="2" stroke-linecap="round" stroke-linejoin="round"></path><path d="M3.54102 3.54199H7.79102L11.616 21.1087C11.7485 21.7583 12.1046 22.3409 12.6223 22.755C13.14 23.1692 13.7865 23.3887 14.4493 23.3753H25.3577C26.0205 23.3887 26.6671 23.1692 27.1848 22.755C27.7025 22.3409 28.0586 21.7583 28.191 21.1087L30.4577 9.20866H10.0577" stroke="#F3C5EE" stroke-width="2" stroke-linecap="round" stroke-linejoin="round"></path></svg> 