<?xml version="1.0" encoding="UTF-8"?> <svg xmlns="http://www.w3.org/2000/svg" width="32" height="32" viewBox="0 0 32 32" fill="none"><path d="M26.668 2.66602H5.33464C3.86188 2.66602 2.66797 3.85992 2.66797 5.33268V10.666C2.66797 12.1388 3.86188 13.3327 5.33464 13.3327H26.668C28.1407 13.3327 29.3346 12.1388 29.3346 10.666V5.33268C29.3346 3.85992 28.1407 2.66602 26.668 2.66602Z" stroke="#F3C5EE" stroke-width="2" stroke-linecap="round" stroke-linejoin="round"></path><path d="M26.668 18.666H5.33464C3.86188 18.666 2.66797 19.8599 2.66797 21.3327V26.666C2.66797 28.1388 3.86188 29.3327 5.33464 29.3327H26.668C28.1407 29.3327 29.3346 28.1388 29.3346 26.666V21.3327C29.3346 19.8599 28.1407 18.666 26.668 18.666Z" stroke="#F3C5EE" stroke-width="2" stroke-linecap="round" stroke-linejoin="round"></path><path d="M8 8H8.01333" stroke="#F3C5EE" stroke-width="2" stroke-linecap="round" stroke-linejoin="round"></path><path d="M8 24H8.01333" stroke="#F3C5EE" stroke-width="2" stroke-linecap="round" stroke-linejoin="round"></path></svg> 